<svg id="Layer_1" data-name="Layer 1" xmlns="http://www.w3.org/2000/svg" xmlns:xlink="http://www.w3.org/1999/xlink" viewBox="0 0 64 64"><defs><style>.cls-1{fill:url(#linear-gradient);}.cls-2{fill:none;stroke:#0d1328;stroke-miterlimit:10;stroke-width:0.5px;}.cls-3{font-size:25.94px;}.cls-3,.cls-4,.cls-5{fill:#0d1328;}.cls-4{font-size:11.97px;}.cls-5{font-size:9.37px;}</style><linearGradient id="linear-gradient" x1="54.14" y1="9.86" x2="10.38" y2="53.62" gradientUnits="userSpaceOnUse"><stop offset="0" stop-color="#fff200"/><stop offset="1" stop-color="#ffcb15"/></linearGradient></defs><path class="cls-1" d="M33.34.36l1.67,1a2.71,2.71,0,0,0,2,.27l1.85-.5a2.68,2.68,0,0,1,2.59.69l1.36,1.36a2.72,2.72,0,0,0,1.9.79h1.92A2.68,2.68,0,0,1,49,5.27l1,1.66a2.66,2.66,0,0,0,1.63,1.25l1.86.5a2.69,2.69,0,0,1,1.89,1.89l.5,1.86a2.66,2.66,0,0,0,1.25,1.63l1.66,1a2.68,2.68,0,0,1,1.34,2.32v1.92a2.72,2.72,0,0,0,.79,1.9l1.36,1.36a2.68,2.68,0,0,1,.69,2.59L62.41,27a2.71,2.71,0,0,0,.27,2l1,1.67a2.67,2.67,0,0,1,0,2.68l-1,1.67a2.71,2.71,0,0,0-.27,2l.5,1.85a2.68,2.68,0,0,1-.69,2.59l-1.36,1.36a2.72,2.72,0,0,0-.79,1.9v1.92A2.68,2.68,0,0,1,58.73,49l-1.66,1a2.66,2.66,0,0,0-1.25,1.63l-.5,1.86a2.69,2.69,0,0,1-1.89,1.89l-1.86.5a2.66,2.66,0,0,0-1.63,1.25l-1,1.66a2.68,2.68,0,0,1-2.32,1.34H44.74a2.72,2.72,0,0,0-1.9.79l-1.36,1.36a2.68,2.68,0,0,1-2.59.69L37,62.41a2.71,2.71,0,0,0-2,.27l-1.67,1a2.67,2.67,0,0,1-2.68,0l-1.67-1a2.71,2.71,0,0,0-2-.27l-1.85.5a2.68,2.68,0,0,1-2.59-.69l-1.36-1.36a2.72,2.72,0,0,0-1.9-.79H17.34A2.68,2.68,0,0,1,15,58.73l-1-1.66a2.66,2.66,0,0,0-1.63-1.25l-1.86-.5a2.69,2.69,0,0,1-1.89-1.89l-.5-1.86a2.66,2.66,0,0,0-1.25-1.63L5.27,49a2.68,2.68,0,0,1-1.34-2.32V44.74a2.72,2.72,0,0,0-.79-1.9L1.78,41.48a2.68,2.68,0,0,1-.69-2.59L1.59,37a2.71,2.71,0,0,0-.27-2l-1-1.67a2.67,2.67,0,0,1,0-2.68l1-1.67a2.71,2.71,0,0,0,.27-2l-.5-1.85a2.68,2.68,0,0,1,.69-2.59l1.36-1.36a2.72,2.72,0,0,0,.79-1.9V17.34A2.68,2.68,0,0,1,5.27,15l1.66-1a2.66,2.66,0,0,0,1.25-1.63l.5-1.86a2.69,2.69,0,0,1,1.89-1.89l1.86-.5a2.66,2.66,0,0,0,1.63-1.25l1-1.66a2.68,2.68,0,0,1,2.32-1.34h1.92a2.72,2.72,0,0,0,1.9-.79l1.36-1.36a2.68,2.68,0,0,1,2.59-.69l1.85.5a2.71,2.71,0,0,0,2-.27l1.67-1A2.67,2.67,0,0,1,33.34.36Z"/><path class="cls-2" d="M33.2,3.57l1.5.86a2.39,2.39,0,0,0,1.83.24l1.66-.44a2.41,2.41,0,0,1,2.33.62l1.22,1.22a2.43,2.43,0,0,0,1.7.71h1.73A2.42,2.42,0,0,1,47.26,8l.86,1.5a2.45,2.45,0,0,0,1.46,1.12l1.67.45a2.4,2.4,0,0,1,1.7,1.7l.45,1.67a2.45,2.45,0,0,0,1.12,1.46l1.5.86a2.42,2.42,0,0,1,1.2,2.09v1.73a2.43,2.43,0,0,0,.71,1.7l1.22,1.22a2.41,2.41,0,0,1,.62,2.33l-.44,1.66a2.39,2.39,0,0,0,.24,1.83l.86,1.5a2.39,2.39,0,0,1,0,2.4l-.86,1.5a2.39,2.39,0,0,0-.24,1.83l.44,1.66a2.41,2.41,0,0,1-.62,2.33l-1.22,1.22a2.43,2.43,0,0,0-.71,1.7v1.73A2.42,2.42,0,0,1,56,47.26l-1.5.86a2.45,2.45,0,0,0-1.12,1.46L53,51.25a2.4,2.4,0,0,1-1.7,1.7l-1.67.45a2.45,2.45,0,0,0-1.46,1.12L47.26,56a2.42,2.42,0,0,1-2.09,1.2H43.44a2.43,2.43,0,0,0-1.7.71l-1.22,1.22a2.41,2.41,0,0,1-2.33.62l-1.66-.44a2.39,2.39,0,0,0-1.83.24l-1.5.86a2.39,2.39,0,0,1-2.4,0l-1.5-.86a2.39,2.39,0,0,0-1.83-.24l-1.66.44a2.41,2.41,0,0,1-2.33-.62l-1.22-1.22a2.43,2.43,0,0,0-1.7-.71H18.83A2.42,2.42,0,0,1,16.74,56l-.86-1.5a2.45,2.45,0,0,0-1.46-1.12L12.75,53a2.4,2.4,0,0,1-1.7-1.7l-.45-1.67a2.45,2.45,0,0,0-1.12-1.46L8,47.26a2.42,2.42,0,0,1-1.2-2.09V43.44a2.43,2.43,0,0,0-.71-1.7L4.85,40.52a2.41,2.41,0,0,1-.62-2.33l.44-1.66a2.39,2.39,0,0,0-.24-1.83l-.86-1.5a2.39,2.39,0,0,1,0-2.4l.86-1.5a2.39,2.39,0,0,0,.24-1.83l-.44-1.66a2.41,2.41,0,0,1,.62-2.33l1.22-1.22a2.43,2.43,0,0,0,.71-1.7V18.83A2.42,2.42,0,0,1,8,16.74l1.5-.86a2.45,2.45,0,0,0,1.12-1.46l.45-1.67a2.4,2.4,0,0,1,1.7-1.7l1.67-.45a2.45,2.45,0,0,0,1.46-1.12L16.74,8a2.42,2.42,0,0,1,2.09-1.2h1.73a2.43,2.43,0,0,0,1.7-.71l1.22-1.22a2.41,2.41,0,0,1,2.33-.62l1.66.44a2.39,2.39,0,0,0,1.83-.24l1.5-.86A2.39,2.39,0,0,1,33.2,3.57Z"/><text class="cls-3" transform="translate(11.44 42.11)">20</text><text class="cls-4" transform="translate(40.4 30.43)">%</text><text class="cls-5" transform="translate(40.4 41.46)">OFF</text></svg>