<svg id="freeshipping_01_orange" xmlns="http://www.w3.org/2000/svg" xmlns:xlink="http://www.w3.org/1999/xlink" viewBox="0 0 64 64"><defs><style>.cls-1,.cls-6{fill:#fff;}.cls-2,.cls-5{fill:#0c1542;}.cls-3{fill:url(#linear-gradient);}.cls-4{fill:url(#linear-gradient-2);}.cls-5{font-size:13.99px;}.cls-5,.cls-6{font-family:SVN-CircularBoldItalic, SVN-Circular;font-weight:700;font-style:italic;}.cls-6{font-size:11.16px;}.cls-7{letter-spacing:-0.04em;}.cls-8{letter-spacing:0em;}</style><linearGradient id="linear-gradient" x1="13.94" y1="25.03" x2="62.06" y2="25.03" gradientUnits="userSpaceOnUse"><stop offset="0" stop-color="#fff33b"/><stop offset="0.1" stop-color="#ffec33"/><stop offset="0.38" stop-color="#ffdd20"/><stop offset="0.68" stop-color="#ffd415"/><stop offset="1" stop-color="#ffd111"/></linearGradient><linearGradient id="linear-gradient-2" x1="1.94" y1="40.36" x2="62.06" y2="40.36" gradientUnits="userSpaceOnUse"><stop offset="0" stop-color="#ff713d"/><stop offset="1" stop-color="#f60000"/></linearGradient></defs><path class="cls-1" d="M12.38,51.61C5.84,51.61.51,46.82.51,40.94V29.06l12.66.53a11.55,11.55,0,0,1-.65-3.86V12.36l48.07,3a3,3,0,0,1,2.92,3V51.61Z"/><path class="cls-2" d="M13,12.89,14,13l46.55,2.86A2.49,2.49,0,0,1,63,18.3V51.11H12.38C6.11,51.11,1,46.55,1,40.94V29.58l1,0,11.92.5a11.23,11.23,0,0,1-.9-4.39V12.89m-1-1.06v13.9a12.12,12.12,0,0,0,.47,3.33L2,28.62l-1,0-1,0v12.4C0,47.1,5.56,52.11,12.38,52.11H64V18.3a3.5,3.5,0,0,0-3.44-3.48L14.06,12l-1-.06L12,11.83Z"/><path class="cls-3" d="M62.06,36.16H24.37A10.43,10.43,0,0,1,13.94,25.73V13.89l46.58,2.87a1.54,1.54,0,0,1,1.54,1.54Z"/><path class="cls-4" d="M62.06,50.17H12.38C6.62,50.17,2,46,2,40.94V30.56L60.52,33a1.46,1.46,0,0,1,1.54,1.36Z"/><text class="cls-5" transform="matrix(1, 0.06, -0.06, 1, 22.36, 27.67)">FREE</text><text class="cls-6" transform="translate(7.82 43.84) rotate(1.42)">DELIVE<tspan class="cls-7" x="37.74" y="0">R</tspan><tspan class="cls-8" x="44.35" y="0">Y</tspan></text></svg>